<?xml version="1.0" standalone="no"?>
<svg xmlns:xlink="http://www.w3.org/1999/xlink" id="wave" style="transform:rotate(0deg); transition: 0.3s" viewBox="0 0 1440 280" version="1.1" xmlns="http://www.w3.org/2000/svg"><defs><linearGradient id="sw-gradient-0" x1="0" x2="0" y1="1" y2="0"><stop stop-color="rgba(62, 243, 220.957, 1)" offset="0%"/><stop stop-color="rgba(11, 111.077, 255, 0.6)" offset="100%"/></linearGradient></defs><path style="transform:translate(0, 0px); opacity:1" fill="url(#sw-gradient-0)" d="M0,84L60,79.3C120,75,240,65,360,84C480,103,600,149,720,172.7C840,196,960,196,1080,172.7C1200,149,1320,103,1440,84C1560,65,1680,75,1800,70C1920,65,2040,47,2160,70C2280,93,2400,159,2520,163.3C2640,168,2760,112,2880,102.7C3000,93,3120,131,3240,154C3360,177,3480,187,3600,191.3C3720,196,3840,196,3960,191.3C4080,187,4200,177,4320,144.7C4440,112,4560,56,4680,46.7C4800,37,4920,75,5040,74.7C5160,75,5280,37,5400,60.7C5520,84,5640,168,5760,200.7C5880,233,6000,215,6120,205.3C6240,196,6360,196,6480,177.3C6600,159,6720,121,6840,116.7C6960,112,7080,140,7200,168C7320,196,7440,224,7560,228.7C7680,233,7800,215,7920,172.7C8040,131,8160,65,8280,74.7C8400,84,8520,168,8580,210L8640,252L8640,280L8580,280C8520,280,8400,280,8280,280C8160,280,8040,280,7920,280C7800,280,7680,280,7560,280C7440,280,7320,280,7200,280C7080,280,6960,280,6840,280C6720,280,6600,280,6480,280C6360,280,6240,280,6120,280C6000,280,5880,280,5760,280C5640,280,5520,280,5400,280C5280,280,5160,280,5040,280C4920,280,4800,280,4680,280C4560,280,4440,280,4320,280C4200,280,4080,280,3960,280C3840,280,3720,280,3600,280C3480,280,3360,280,3240,280C3120,280,3000,280,2880,280C2760,280,2640,280,2520,280C2400,280,2280,280,2160,280C2040,280,1920,280,1800,280C1680,280,1560,280,1440,280C1320,280,1200,280,1080,280C960,280,840,280,720,280C600,280,480,280,360,280C240,280,120,280,60,280L0,280Z"/><defs><linearGradient id="sw-gradient-1" x1="0" x2="0" y1="1" y2="0"><stop stop-color="rgba(62, 240.339, 243, 0.69)" offset="0%"/><stop stop-color="rgba(11, 127.373, 255, 1)" offset="100%"/></linearGradient></defs><path style="transform:translate(0, 50px); opacity:0.9" fill="url(#sw-gradient-1)" d="M0,0L60,32.7C120,65,240,131,360,135.3C480,140,600,84,720,79.3C840,75,960,121,1080,126C1200,131,1320,93,1440,107.3C1560,121,1680,187,1800,191.3C1920,196,2040,140,2160,130.7C2280,121,2400,159,2520,144.7C2640,131,2760,65,2880,56C3000,47,3120,93,3240,116.7C3360,140,3480,140,3600,144.7C3720,149,3840,159,3960,154C4080,149,4200,131,4320,102.7C4440,75,4560,37,4680,18.7C4800,0,4920,0,5040,14C5160,28,5280,56,5400,60.7C5520,65,5640,47,5760,32.7C5880,19,6000,9,6120,28C6240,47,6360,93,6480,126C6600,159,6720,177,6840,163.3C6960,149,7080,103,7200,107.3C7320,112,7440,168,7560,182C7680,196,7800,168,7920,168C8040,168,8160,196,8280,214.7C8400,233,8520,243,8580,247.3L8640,252L8640,280L8580,280C8520,280,8400,280,8280,280C8160,280,8040,280,7920,280C7800,280,7680,280,7560,280C7440,280,7320,280,7200,280C7080,280,6960,280,6840,280C6720,280,6600,280,6480,280C6360,280,6240,280,6120,280C6000,280,5880,280,5760,280C5640,280,5520,280,5400,280C5280,280,5160,280,5040,280C4920,280,4800,280,4680,280C4560,280,4440,280,4320,280C4200,280,4080,280,3960,280C3840,280,3720,280,3600,280C3480,280,3360,280,3240,280C3120,280,3000,280,2880,280C2760,280,2640,280,2520,280C2400,280,2280,280,2160,280C2040,280,1920,280,1800,280C1680,280,1560,280,1440,280C1320,280,1200,280,1080,280C960,280,840,280,720,280C600,280,480,280,360,280C240,280,120,280,60,280L0,280Z"/></svg>